<svg xmlns="http://www.w3.org/2000/svg" width="1442" height="1026" fill="none" viewBox="0 0 1442 1026"><g opacity=".12"><line x1="1" x2="1" y1="2" y2="1026" stroke="#fff" stroke-width="2"/><line x1="121" x2="121" y1="2" y2="1026" stroke="#fff" stroke-width="2"/><line x1="241" x2="241" y1="2" y2="1026" stroke="#fff" stroke-width="2"/><line x1="361" x2="361" y1="2" y2="1026" stroke="#fff" stroke-width="2"/><line x1="481" x2="481" y1="2" y2="1026" stroke="#fff" stroke-width="2"/><line x1="601" x2="601" y1="2" y2="1026" stroke="#fff" stroke-width="2"/><line x1="721" x2="721" y1="2" y2="1026" stroke="#fff" stroke-width="2"/><line x1="841" x2="841" y1="2" y2="1026" stroke="#fff" stroke-width="2"/><line x1="961" x2="961" y1="2" y2="1026" stroke="#fff" stroke-width="2"/><line x1="1081" x2="1081" y1="2" y2="1026" stroke="#fff" stroke-width="2"/><line x1="1201" x2="1201" y1="2" y2="1026" stroke="#fff" stroke-width="2"/><line x1="1321" x2="1321" y1="2" y2="1026" stroke="#fff" stroke-width="2"/><line x1="1441" x2="1441" y1="2" y2="1026" stroke="#fff" stroke-width="2"/><line x1="0" x2="1440" y1="961" y2="961" stroke="#fff" stroke-width="2"/><line x1="0" x2="1440" y1="841" y2="841" stroke="#fff" stroke-width="2"/><line x1="0" x2="1440" y1="721" y2="721" stroke="#fff" stroke-width="2"/><line x1="0" x2="1440" y1="601" y2="601" stroke="#fff" stroke-width="2"/><line x1="0" x2="1440" y1="481" y2="481" stroke="#fff" stroke-width="2"/><line x1="0" x2="1440" y1="361" y2="361" stroke="#fff" stroke-width="2"/><line x1="0" x2="1440" y1="241" y2="241" stroke="#fff" stroke-width="2"/><line x1="0" x2="1440" y1="121" y2="121" stroke="#fff" stroke-width="2"/><line x1="0" x2="1440" y1="1" y2="1" stroke="#fff" stroke-width="2"/></g></svg>